<!-- Rust gear logo — 10-tooth gear approximating the official Rust brand mark.
     Based on the Rust programming language logo (https://www.rust-lang.org/).
     The Rust logo is copyright the Rust Foundation and dual-licensed under
     Apache 2.0 / MIT; this recreation is used here for "Built with Rust"
     attribution per rust-lang.org media guide.
     See CREDITS.md for full attribution. -->
<svg xmlns="http://www.w3.org/2000/svg" viewBox="0 0 100 100" role="img" aria-label="Rust">
  <!-- 10-tooth gear body -->
  <path fill="#E05D2B" d="
    M43.23,22.83 L44.43,10.39 L55.57,10.39 L56.77,22.83
    L60.49,24.04 L68.78,14.68 L77.79,21.23 L71.45,32.00
    L73.75,35.16 L85.95,32.47 L89.39,43.05 L77.93,48.05
    L77.93,51.95 L89.39,56.95 L85.95,67.53 L73.75,64.84
    L71.45,68.00 L77.79,78.77 L68.78,85.32 L60.49,75.96
    L56.77,77.17 L55.57,89.61 L44.43,89.61 L43.23,77.17
    L39.51,75.96 L31.22,85.32 L22.21,78.77 L28.55,68.00
    L26.25,64.84 L14.05,67.53 L10.61,56.95 L22.07,51.95
    L22.07,48.05 L10.61,43.05 L14.05,32.47 L26.25,35.16
    L28.55,32.00 L22.21,21.23 L31.22,14.68 L39.51,24.04 Z
  "/>
  <!-- Centre hole (punched out) -->
  <circle cx="50" cy="50" r="13" fill="#0F1419"/>
  <!-- Inner hub ring -->
  <circle cx="50" cy="50" r="10" fill="none" stroke="#E05D2B" stroke-width="2.5"/>
</svg>
